HIERARCHY
ROOT newVegas:Hips
{
	OFFSET 0.000000 96.479958 0.000000
	CHANNELS 6 Xposition Yposition Zposition Xrotation Yrotation Zrotation
	JOINT newVegas:Pelvis
	{
		OFFSET 0.000000 0.000000 0.000000
		CHANNELS 3 Xrotation Yrotation Zrotation
		JOINT newVegas:LeftUpLeg
		{
			OFFSET 18.735201 -5.666702 -4.541200
			CHANNELS 3 Xrotation Yrotation Zrotation
			JOINT newVegas:LeftLeg
			{
				OFFSET -0.021200 -31.938179 0.493100
				CHANNELS 3 Xrotation Yrotation Zrotation
				JOINT newVegas:LeftFoot
				{
					OFFSET 0.021200 -31.938179 -4.336299
					CHANNELS 3 Xrotation Yrotation Zrotation
					JOINT newVegas:LeftToeBase
					{
						OFFSET 0.943001 -26.722000 15.023500
						CHANNELS 3 Xrotation Yrotation Zrotation
						End Site
						{
							OFFSET 0.000000 30.670183 0.000000
						}
					}
				}
				JOINT newVegas:Left_PantLeg
				{
					OFFSET 0.663870 -9.044666 -1.108900
					CHANNELS 3 Xrotation Yrotation Zrotation
					End Site
					{
						OFFSET 1.415995 20.635357 0.000000
					}
				}
			}
		}
		JOINT newVegas:RightUpLeg
		{
			OFFSET -18.735201 -5.666702 -4.541200
			CHANNELS 3 Xrotation Yrotation Zrotation
			JOINT newVegas:RightLeg
			{
				OFFSET 0.018946 -31.938133 0.493100
				CHANNELS 3 Xrotation Yrotation Zrotation
				JOINT newVegas:RightFoot
				{
					OFFSET -0.018946 -31.938126 -4.336299
					CHANNELS 3 Xrotation Yrotation Zrotation
					JOINT newVegas:RightToeBase
					{
						OFFSET -0.943001 -26.722004 15.023500
						CHANNELS 3 Xrotation Yrotation Zrotation
						End Site
						{
							OFFSET 0.000000 30.670187 0.000000
						}
					}
				}
				JOINT newVegas:Right_PantLeg
				{
					OFFSET -0.661674 -9.044716 -1.108900
					CHANNELS 3 Xrotation Yrotation Zrotation
					End Site
					{
						OFFSET -1.415958 20.635269 0.000000
					}
				}
			}
		}
	}
	JOINT newVegas:Spine
	{
		OFFSET 0.000000 10.199997 -0.299500
		CHANNELS 3 Xrotation Yrotation Zrotation
		JOINT newVegas:Spine1
		{
			OFFSET 0.000000 11.900002 -1.516600
			CHANNELS 3 Xrotation Yrotation Zrotation
			JOINT newVegas:Spine2
			{
				OFFSET 0.000000 13.600006 -2.842500
				CHANNELS 3 Xrotation Yrotation Zrotation
				JOINT newVegas:Neck
				{
					OFFSET 0.000000 9.624100 -2.890100
					CHANNELS 3 Xrotation Yrotation Zrotation
					JOINT newVegas:Head
					{
						OFFSET 0.000000 14.068802 -1.351900
						CHANNELS 3 Xrotation Yrotation Zrotation
						JOINT newVegas:Hair_Back
						{
							OFFSET 0.000000 3.231903 -17.524799
							CHANNELS 3 Xrotation Yrotation Zrotation
							End Site
							{
								OFFSET 0.000000 19.849884 0.000000
							}
						}
						JOINT newVegas:Hair_Front
						{
							OFFSET 0.000000 31.260406 4.573800
							CHANNELS 3 Xrotation Yrotation Zrotation
							JOINT newVegas:Hair_Front1
							{
								OFFSET 0.000000 2.284103 11.993300
								CHANNELS 3 Xrotation Yrotation Zrotation
								JOINT newVegas:Hair_Front2
								{
									OFFSET 0.000000 2.284103 11.993300
									CHANNELS 3 Xrotation Yrotation Zrotation
									End Site
									{
										OFFSET 0.000000 12.208862 0.000000
									}
								}
							}
						}
						JOINT newVegas:Jowel
						{
							OFFSET 0.000000 -7.458206 6.864100
							CHANNELS 3 Xrotation Yrotation Zrotation
							End Site
							{
								OFFSET 0.000000 19.849884 0.000000
							}
						}
					}
				}
				JOINT newVegas:LeftShoulder
				{
					OFFSET 15.263000 10.923401 -0.547700
					CHANNELS 3 Xrotation Yrotation Zrotation
					JOINT newVegas:LeftArm
					{
						OFFSET 25.438599 -2.830597 -13.032500
						CHANNELS 3 Xrotation Yrotation Zrotation
						JOINT newVegas:LeftForeArm
						{
							OFFSET 29.960503 0.000000 0.000000
							CHANNELS 3 Xrotation Yrotation Zrotation
							JOINT newVegas:LeftHand
							{
								OFFSET 27.849251 0.000000 0.000000
								CHANNELS 3 Xrotation Yrotation Zrotation
								JOINT newVegas:LeftHandThumb1
								{
									OFFSET 4.487587 -3.305161 6.305391
									CHANNELS 3 Xrotation Yrotation Zrotation
									JOINT newVegas:LeftHandThumb2
									{
										OFFSET 5.480453 -3.164139 3.164143
										CHANNELS 3 Xrotation Yrotation Zrotation
										JOINT newVegas:LeftHandThumb3
										{
											OFFSET 5.159721 -2.978973 2.978967
											CHANNELS 3 Xrotation Yrotation Zrotation
											End Site
											{
												OFFSET 2.494507 5.926697 1.738678
											}
										}
									}
								}
								JOINT newVegas:LeftHandIndex1
								{
									OFFSET 18.578728 -0.527832 5.208049
									CHANNELS 3 Xrotation Yrotation Zrotation
									JOINT newVegas:LeftHandIndex2
									{
										OFFSET 3.192009 0.000000 0.000000
										CHANNELS 3 Xrotation Yrotation Zrotation
										JOINT newVegas:LeftHandIndex3
										{
											OFFSET 3.835129 0.000000 0.000000
											CHANNELS 3 Xrotation Yrotation Zrotation
											End Site
											{
												OFFSET -0.034599 3.816971 0.371180
											}
										}
									}
								}
								JOINT newVegas:LeftHandMiddle1
								{
									OFFSET 18.476105 0.000000 0.000000
									CHANNELS 3 Xrotation Yrotation Zrotation
									JOINT newVegas:LeftHandMiddle2
									{
										OFFSET 3.324875 0.000000 0.000000
										CHANNELS 3 Xrotation Yrotation Zrotation
										JOINT newVegas:LeftHandMiddle3
										{
											OFFSET 4.596550 0.000000 0.000000
											CHANNELS 3 Xrotation Yrotation Zrotation
											End Site
											{
												OFFSET 0.057701 4.578827 0.399218
											}
										}
									}
								}
								JOINT newVegas:LeftHandRing1
								{
									OFFSET 17.732719 0.121887 -4.201567
									CHANNELS 3 Xrotation Yrotation Zrotation
									JOINT newVegas:LeftHandRing2
									{
										OFFSET 2.733170 0.000000 0.000000
										CHANNELS 3 Xrotation Yrotation Zrotation
										JOINT newVegas:LeftHandRing3
										{
											OFFSET 3.178268 0.000000 0.000000
											CHANNELS 3 Xrotation Yrotation Zrotation
											End Site
											{
												OFFSET 0.119102 3.170624 0.185394
											}
										}
									}
								}
								JOINT newVegas:LeftHandPinky1
								{
									OFFSET 15.989624 -0.606689 -7.535461
									CHANNELS 3 Xrotation Yrotation Zrotation
									JOINT newVegas:LeftHandPinky2
									{
										OFFSET 2.538986 0.000000 0.000000
										CHANNELS 3 Xrotation Yrotation Zrotation
										JOINT newVegas:LeftHandPinky3
										{
											OFFSET 2.593102 0.000000 0.000000
											CHANNELS 3 Xrotation Yrotation Zrotation
											End Site
											{
												OFFSET -0.150902 2.584198 0.152708
											}
										}
									}
								}
							}
							JOINT newVegas:Left_Sleeve
							{
								OFFSET 0.267448 -0.649796 0.577675
								CHANNELS 3 Xrotation Yrotation Zrotation
								End Site
								{
									OFFSET 0.000000 15.991241 0.000000
								}
							}
							JOINT newVegas:Left_CapeC
							{
								OFFSET 15.715958 -8.608795 -6.935905
								CHANNELS 3 Xrotation Yrotation Zrotation
								JOINT newVegas:Left_CapeC1
								{
									OFFSET 0.000000 -8.688499 0.000000
									CHANNELS 3 Xrotation Yrotation Zrotation
									End Site
									{
										OFFSET 0.000000 8.688499 0.000000
									}
								}
							}
						}
						JOINT newVegas:Left_CapeB
						{
							OFFSET 26.118385 -8.608795 -7.079235
							CHANNELS 3 Xrotation Yrotation Zrotation
							JOINT newVegas:Left_CapeB1
							{
								OFFSET 0.000000 -8.688499 0.000000
								CHANNELS 3 Xrotation Yrotation Zrotation
								End Site
								{
									OFFSET 0.000000 8.688499 0.000000
								}
							}
						}
						JOINT newVegas:Left_CapeA
						{
							OFFSET 5.115639 -8.608795 -10.395809
							CHANNELS 3 Xrotation Yrotation Zrotation
							JOINT newVegas:Left_CapeA1
							{
								OFFSET 0.000000 -8.688499 0.000000
								CHANNELS 3 Xrotation Yrotation Zrotation
								End Site
								{
									OFFSET 0.000000 8.688499 0.000000
								}
							}
						}
					}
				}
				JOINT newVegas:RightShoulder
				{
					OFFSET -15.263000 10.923401 -0.547700
					CHANNELS 3 Xrotation Yrotation Zrotation
					JOINT newVegas:RightArm
					{
						OFFSET -25.438599 -2.830597 -13.032500
						CHANNELS 3 Xrotation Yrotation Zrotation
						JOINT newVegas:RightForeArm
						{
							OFFSET -29.960503 0.000000 0.000000
							CHANNELS 3 Xrotation Yrotation Zrotation
							JOINT newVegas:RightHand
							{
								OFFSET -27.849251 0.000000 0.000000
								CHANNELS 3 Xrotation Yrotation Zrotation
								JOINT newVegas:RightHandThumb1
								{
									OFFSET -4.487587 -3.305161 6.305391
									CHANNELS 3 Xrotation Yrotation Zrotation
									JOINT newVegas:RightHandThumb2
									{
										OFFSET -5.480453 -3.164139 3.164143
										CHANNELS 3 Xrotation Yrotation Zrotation
										JOINT newVegas:RightHandThumb3
										{
											OFFSET -5.159721 -2.978973 2.978967
											CHANNELS 3 Xrotation Yrotation Zrotation
											End Site
											{
												OFFSET -2.494507 5.926697 1.738678
											}
										}
									}
								}
								JOINT newVegas:RightHandIndex1
								{
									OFFSET -18.578728 -0.527832 5.208049
									CHANNELS 3 Xrotation Yrotation Zrotation
									JOINT newVegas:RightHandIndex2
									{
										OFFSET -3.192009 0.000000 0.000000
										CHANNELS 3 Xrotation Yrotation Zrotation
										JOINT newVegas:RightHandIndex3
										{
											OFFSET -3.835129 0.000000 0.000000
											CHANNELS 3 Xrotation Yrotation Zrotation
											End Site
											{
												OFFSET 0.034599 3.816971 0.371180
											}
										}
									}
								}
								JOINT newVegas:RightHandMiddle1
								{
									OFFSET -18.476105 0.000000 0.000000
									CHANNELS 3 Xrotation Yrotation Zrotation
									JOINT newVegas:RightHandMiddle2
									{
										OFFSET -3.324875 0.000000 0.000000
										CHANNELS 3 Xrotation Yrotation Zrotation
										JOINT newVegas:RightHandMiddle3
										{
											OFFSET -4.596550 0.000000 0.000000
											CHANNELS 3 Xrotation Yrotation Zrotation
											End Site
											{
												OFFSET -0.057701 4.578827 0.399218
											}
										}
									}
								}
								JOINT newVegas:RightHandRing1
								{
									OFFSET -17.732719 0.121887 -4.201567
									CHANNELS 3 Xrotation Yrotation Zrotation
									JOINT newVegas:RightHandRing2
									{
										OFFSET -2.733170 0.000000 0.000000
										CHANNELS 3 Xrotation Yrotation Zrotation
										JOINT newVegas:RightHandRing3
										{
											OFFSET -3.178268 0.000000 0.000000
											CHANNELS 3 Xrotation Yrotation Zrotation
											End Site
											{
												OFFSET -0.119102 3.170624 0.185394
											}
										}
									}
								}
								JOINT newVegas:RightHandPinky1
								{
									OFFSET -15.989624 -0.606689 -7.535461
									CHANNELS 3 Xrotation Yrotation Zrotation
									JOINT newVegas:RightHandPinky2
									{
										OFFSET -2.538986 0.000000 0.000000
										CHANNELS 3 Xrotation Yrotation Zrotation
										JOINT newVegas:RightHandPinky3
										{
											OFFSET -2.593102 0.000000 0.000000
											CHANNELS 3 Xrotation Yrotation Zrotation
											End Site
											{
												OFFSET 0.150902 2.584198 0.152708
											}
										}
									}
								}
							}
							JOINT newVegas:Right_CapeC
							{
								OFFSET -15.715958 -8.608795 -6.935905
								CHANNELS 3 Xrotation Yrotation Zrotation
								JOINT newVegas:Right_CapeC1
								{
									OFFSET 0.000000 -8.688499 0.000000
									CHANNELS 3 Xrotation Yrotation Zrotation
									End Site
									{
										OFFSET 0.000000 8.688499 0.000000
									}
								}
							}
							JOINT newVegas:Right_Sleeve
							{
								OFFSET -0.267448 -0.649994 0.577675
								CHANNELS 3 Xrotation Yrotation Zrotation
								End Site
								{
									OFFSET 0.000000 15.991302 0.000000
								}
							}
						}
						JOINT newVegas:Right_CapeA
						{
							OFFSET -5.115540 -8.608795 -10.395824
							CHANNELS 3 Xrotation Yrotation Zrotation
							JOINT newVegas:Right_CapeA1
							{
								OFFSET 0.000000 -8.688499 0.000000
								CHANNELS 3 Xrotation Yrotation Zrotation
								End Site
								{
									OFFSET 0.000000 8.688499 0.000000
								}
							}
						}
						JOINT newVegas:Right_CapeB
						{
							OFFSET -26.118187 -8.608795 -7.079266
							CHANNELS 3 Xrotation Yrotation Zrotation
							JOINT newVegas:Right_CapeB1
							{
								OFFSET 0.000000 -8.688499 0.000000
								CHANNELS 3 Xrotation Yrotation Zrotation
								End Site
								{
									OFFSET 0.000000 8.688499 0.000000
								}
							}
						}
					}
				}
				JOINT newVegas:Left_Collar
				{
					OFFSET 18.625099 8.655502 8.828100
					CHANNELS 3 Xrotation Yrotation Zrotation
					JOINT newVegas:Left_Collar1
					{
						OFFSET 14.783401 10.540405 -1.259500
						CHANNELS 3 Xrotation Yrotation Zrotation
						End Site
						{
							OFFSET 0.000000 18.199875 0.000000
						}
					}
				}
				JOINT newVegas:Collar_Back
				{
					OFFSET 0.000000 15.630707 -20.132601
					CHANNELS 3 Xrotation Yrotation Zrotation
					End Site
					{
						OFFSET 0.000000 22.523010 0.000000
					}
				}
				JOINT newVegas:Left_Peck
				{
					OFFSET 17.239599 -5.132599 25.482599
					CHANNELS 3 Xrotation Yrotation Zrotation
					End Site
					{
						OFFSET 0.000000 22.523010 0.000000
					}
				}
				JOINT newVegas:Right_Peck
				{
					OFFSET -17.239599 -5.132202 25.482599
					CHANNELS 3 Xrotation Yrotation Zrotation
					End Site
					{
						OFFSET 0.000000 22.523010 0.000000
					}
				}
				JOINT newVegas:Right_Collar
				{
					OFFSET -18.625099 8.655792 8.828100
					CHANNELS 3 Xrotation Yrotation Zrotation
					JOINT newVegas:Right_Collar1
					{
						OFFSET -14.783401 10.539993 -1.259500
						CHANNELS 3 Xrotation Yrotation Zrotation
						End Site
						{
							OFFSET 0.000000 18.199631 0.000000
						}
					}
				}
			}
		}
		JOINT newVegas:Belly
		{
			OFFSET 0.000000 -6.540398 9.014299
			CHANNELS 3 Xrotation Yrotation Zrotation
			End Site
			{
				OFFSET 0.000000 11.566666 0.000000
			}
		}
	}
	JOINT newVegas:ElvisFacialAnim_Joint
	{
		OFFSET 1.000000 -95.330101 -8.825800
		CHANNELS 3 Xrotation Yrotation Zrotation
		End Site
		{
			OFFSET 0.000000 35.315800 0.000000
		}
	}
}
MOTION
Frames: 4
Frame Time: 0.016667
-0.101321 35.901695 -1.723427 72.665508 -1.731055 -1.376524 -0.000001 -0.000000 -0.000000 3.969967 11.459332 1.202147 5.265300 4.987787 1.843117 -34.025885 0.645744 -1.482442 -0.000000 0.000000 -0.000000 0.000000 0.000001 0.000000 -6.043715 -7.641225 -1.589769 18.473058 2.671495 -1.317657 -28.073744 -0.159187 0.430166 -0.000003 -0.000000 -0.000001 0.000000 -0.000000 0.000000 0.752803 -0.197005 0.598990 1.989908 -0.361037 0.703952 1.989547 -0.369635 0.705793 -3.686016 -0.218883 1.279882 -3.686010 -0.218884 1.279884 -0.000001 -0.000001 0.000000 -3.685932 -0.218885 1.279883 -3.686113 -0.218881 1.279881 -0.000001 -0.000000 0.000000 -0.000001 -0.000001 -0.000000 1.107189 -1.022676 0.366517 -53.198144 -52.390160 -60.733769 0.000000 -9.465335 -0.000005 10.586331 -19.105158 86.700406 -1.335217 3.247027 11.085639 10.126214 -4.458095 7.651885 0.000001 -0.000001 -0.000001 -4.827125 -13.400615 -17.576717 0.100500 1.081556 -10.616089 0.000000 -0.000001 -0.000002 -3.573220 -14.167589 -13.089239 0.077334 0.949773 -9.309780 0.000001 0.000001 -0.000002 0.216144 -14.772459 -0.362640 0.436539 2.220933 -22.237327 0.000001 -0.000001 0.000001 -11.565753 -10.889323 18.851092 1.477778 3.890855 -41.581949 -0.000001 -0.000002 -0.000000 0.000002 0.000000 -0.000000 0.000002 0.000000 -0.000000 0.000001 0.000000 0.000000 -0.000000 0.000000 -0.000000 -0.000000 0.000000 -0.000000 -0.000000 0.000000 -0.000000 -0.000002 0.000000 -0.000000 1.721912 3.722435 14.170255 -57.852993 62.510410 58.216373 -0.000000 10.622204 0.000003 22.462829 6.417981 -82.516758 -0.201454 3.035635 -7.196456 8.074872 6.487057 -14.042702 0.000000 -0.000001 0.000001 -3.768164 8.510241 18.931739 0.000002 0.000002 0.000014 0.000001 0.000001 -0.000001 -0.238732 9.461314 1.884914 0.696244 -2.451495 31.705421 -0.000001 -0.000000 -0.000003 -0.642241 6.921372 4.616451 0.435034 -1.967179 24.937690 -0.000000 0.000001 -0.000000 -8.414059 -1.159955 -7.808913 0.946318 -2.815976 37.143675 -0.000000 0.000002 0.000001 0.000002 0.000000 -0.000000 0.000002 0.000000 -0.000001 0.000002 0.000000 -0.000000 -0.000003 -0.000001 0.000000 -0.000003 -0.000001 0.000000 -0.000003 -0.000001 0.000000 -0.000003 -0.000001 0.000000 0.000000 -0.000000 0.000000 0.000000 -0.000000 0.000000 0.000000 -0.000000 0.000000 0.000000 -0.000000 0.000000 0.000000 -0.000000 0.000000 0.000000 -0.000000 0.000000 0.000000 -0.000000 0.000000 -0.000001 0.000000 0.000000 -0.000001 -0.000000 -0.000000 
-0.114932 35.939903 -1.746132 72.692508 -1.737664 -1.380221 -0.000000 0.000000 0.000000 3.962310 11.449792 1.194857 5.177802 5.049050 1.851500 -34.027545 0.643629 -1.476163 -0.000001 0.000000 -0.000001 -0.000000 0.000000 0.000000 -6.081664 -7.635253 -1.562238 18.448566 2.629462 -1.308036 -28.078056 -0.151049 0.403679 -0.000003 -0.000001 -0.000000 0.000001 0.000000 -0.000000 0.764261 -0.194301 0.595372 2.014336 -0.356035 0.696149 2.017245 -0.364457 0.698350 -3.693159 -0.219911 1.282152 -3.693150 -0.219912 1.282152 -0.000002 0.000000 0.000000 -3.693110 -0.219908 1.282150 -3.693184 -0.219909 1.282151 -0.000001 0.000000 -0.000001 -0.000002 0.000000 0.000000 1.106198 -1.019218 0.444195 -53.325794 -52.446021 -60.786163 -0.000010 -9.373370 -0.000007 10.495917 -19.160200 86.594163 -1.335176 3.246651 11.086000 10.147846 -4.457483 7.634722 0.000000 -0.000000 -0.000003 -4.837808 -13.407074 -17.604548 0.100309 1.080567 -10.606298 -0.000001 -0.000001 0.000000 -3.580334 -14.174219 -13.107834 0.077277 0.949391 -9.306202 -0.000001 0.000001 -0.000002 0.214315 -14.770895 -0.368757 0.436229 2.220159 -22.229293 0.000001 -0.000001 0.000002 -11.556532 -10.896246 18.883818 1.482246 3.895856 -41.647714 -0.000003 0.000000 -0.000000 -0.000001 0.000001 -0.000000 -0.000001 0.000001 -0.000000 -0.000002 0.000001 0.000000 0.000000 0.000002 0.000001 0.000000 0.000002 0.000001 0.000000 0.000002 0.000001 -0.000002 0.000002 0.000000 1.692441 3.818571 14.166778 -57.419071 62.383034 57.737686 0.000008 11.015440 0.000009 22.411401 6.229434 -82.455533 -0.201454 3.035644 -7.196449 8.074866 6.487016 -14.042694 0.000002 -0.000002 -0.000001 -3.768101 8.510270 18.931753 -0.000003 -0.000012 0.000008 0.000000 -0.000000 -0.000001 -0.238730 9.461320 1.884915 0.696248 -2.451506 31.705431 -0.000000 0.000000 -0.000002 -0.642241 6.921362 4.616452 0.435033 -1.967165 24.937709 0.000000 -0.000001 0.000001 -8.414057 -1.159934 -7.808914 0.946312 -2.816000 37.143672 0.000003 0.000002 -0.000001 0.000002 -0.000001 0.000000 0.000002 -0.000000 -0.000000 0.000002 -0.000001 -0.000000 -0.000003 0.000000 -0.000000 -0.000003 0.000000 -0.000000 -0.000003 0.000000 -0.000000 -0.000002 -0.000000 -0.000000 -0.000000 -0.000000 -0.000000 -0.000000 -0.000000 -0.000000 -0.000000 -0.000000 -0.000000 -0.000000 -0.000000 -0.000000 -0.000000 -0.000000 -0.000000 -0.000000 -0.000000 -0.000000 -0.000000 -0.000000 -0.000000 -0.000000 0.000000 -0.000000 -0.000000 0.000000 0.000000 
-0.130370 35.983429 -1.769051 72.721905 -1.736811 -1.383094 0.000001 0.000000 0.000000 3.984767 11.431507 1.176158 5.012469 5.112650 1.875545 -33.989135 0.640310 -1.471355 -0.000002 -0.000001 -0.000000 0.000001 -0.000000 -0.000000 -6.120732 -7.622020 -1.532146 18.415254 2.580192 -1.301944 -28.073401 -0.144176 0.381338 0.000001 0.000000 0.000000 -0.000001 0.000000 -0.000000 0.779468 -0.192374 0.588896 2.046994 -0.353058 0.686805 2.059590 -0.360989 0.690020 -3.698464 -0.220799 1.284685 -3.698465 -0.220797 1.284685 -0.000002 0.000000 0.000000 -3.698412 -0.220797 1.284684 -3.698435 -0.220797 1.284684 0.000000 -0.000000 0.000000 -0.000002 0.000000 0.000000 1.109402 -1.047178 0.617680 -53.300187 -52.427241 -60.726099 0.000000 -9.495820 0.000004 10.330537 -19.116409 86.488418 -1.335055 3.245443 11.087063 10.172726 -4.455034 7.614906 0.000001 0.000001 -0.000001 -4.849296 -13.415391 -17.633320 0.101664 1.087817 -10.678340 0.000001 -0.000001 0.000002 -3.576276 -14.185622 -13.088179 0.077294 0.949499 -9.307367 -0.000002 0.000000 -0.000003 0.213928 -14.771022 -0.370084 0.436405 2.220588 -22.233874 -0.000001 0.000001 0.000002 -11.537938 -10.909919 18.948268 1.491655 3.906372 -41.785861 -0.000005 0.000002 0.000001 -0.000003 0.000001 0.000000 -0.000003 0.000001 0.000000 -0.000004 0.000001 0.000000 0.000001 0.000000 -0.000000 0.000001 0.000000 0.000000 0.000001 0.000000 -0.000000 -0.000001 0.000000 -0.000000 1.608448 4.068152 14.154881 -56.074753 61.951633 56.389195 0.000002 12.166839 0.000001 22.338100 5.692531 -82.256597 -0.201453 3.035656 -7.196446 8.074866 6.487026 -14.042692 0.000000 0.000001 0.000001 -3.767903 8.510341 18.931763 -0.000002 -0.000002 0.000010 -0.000001 0.000000 -0.000000 -0.238728 9.461311 1.884909 0.696247 -2.451497 31.705431 -0.000000 0.000001 -0.000005 -0.642239 6.921356 4.616437 0.435034 -1.967180 24.937702 -0.000000 0.000001 0.000001 -8.414061 -1.159934 -7.808913 0.946319 -2.815984 37.143668 0.000000 0.000003 -0.000000 0.000002 -0.000000 -0.000000 0.000000 -0.000001 0.000000 0.000002 -0.000000 -0.000000 0.000002 0.000001 0.000001 0.000002 0.000001 0.000001 0.000002 0.000001 0.000001 0.000002 0.000001 0.000001 -0.000001 0.000000 -0.000000 -0.000001 0.000000 -0.000000 -0.000001 0.000000 -0.000000 -0.000001 0.000000 -0.000000 -0.000001 0.000000 -0.000000 -0.000001 0.000000 -0.000000 -0.000001 0.000000 -0.000000 0.000000 -0.000000 -0.000000 0.000001 0.000000 0.000000 
-0.147799 36.031590 -1.793449 72.754492 -1.729420 -1.381066 -0.000000 -0.000000 0.000000 4.037523 11.401899 1.143869 4.769729 5.174805 1.913855 -33.910824 0.637284 -1.472413 0.000003 0.000000 0.000000 -0.000001 0.000000 -0.000000 -6.170574 -7.602123 -1.504893 18.389431 2.527601 -1.301537 -28.068220 -0.139106 0.364774 0.000001 0.000000 -0.000000 0.000000 -0.000000 0.000000 0.797378 -0.191629 0.579761 2.085609 -0.352767 0.674648 2.114160 -0.359899 0.679518 -3.701515 -0.221372 1.286711 -3.701507 -0.221373 1.286711 -0.000001 -0.000000 -0.000000 -3.701458 -0.221371 1.286711 -3.701544 -0.221372 1.286712 0.000000 0.000000 0.000000 -0.000001 -0.000000 -0.000000 1.118095 -1.112103 0.871085 -53.079668 -52.340341 -60.509220 0.000002 -9.849029 0.000009 10.082013 -18.967714 86.379456 -1.334845 3.243500 11.088827 10.184144 -4.450627 7.605695 0.000001 -0.000003 0.000000 -4.864698 -13.431230 -17.667935 0.102162 1.090443 -10.704352 -0.000003 -0.000001 0.000002 -3.587285 -14.183191 -13.124473 0.077379 0.950029 -9.312545 0.000000 -0.000001 0.000001 0.201499 -14.788813 -0.413985 0.436866 2.221728 -22.245889 -0.000000 -0.000002 0.000002 -11.535565 -10.898853 18.936807 1.498028 3.913496 -41.879527 0.000001 -0.000002 -0.000000 -0.000002 0.000000 -0.000000 -0.000002 0.000000 -0.000000 -0.000003 0.000001 0.000000 -0.000001 -0.000001 -0.000000 -0.000001 0.000000 0.000000 -0.000001 -0.000001 -0.000000 -0.000003 0.000000 -0.000000 1.474310 4.460580 14.127445 -54.128044 61.266510 54.462617 -0.000001 13.832705 -0.000010 22.245091 4.915922 -81.969619 -0.201453 3.035654 -7.196450 8.074868 6.487014 -14.042688 0.000003 0.000003 -0.000000 -3.767586 8.510452 18.931795 0.000000 0.000013 0.000007 0.000001 0.000000 -0.000001 -0.238728 9.461310 1.884905 0.696234 -2.451472 31.705431 -0.000000 -0.000000 -0.000002 -0.642236 6.921368 4.616425 0.435035 -1.967185 24.937722 -0.000000 0.000002 0.000001 -8.414060 -1.159934 -7.808913 0.946327 -2.816006 37.143658 0.000002 0.000002 -0.000000 0.000002 0.000000 -0.000000 0.000002 -0.000000 -0.000000 0.000002 0.000000 -0.000000 0.000000 0.000001 0.000002 0.000001 0.000001 0.000001 0.000000 0.000001 0.000002 0.000001 0.000001 0.000001 0.000000 0.000000 -0.000000 0.000000 0.000000 -0.000000 0.000000 0.000000 -0.000000 0.000000 0.000000 -0.000000 0.000000 0.000000 -0.000000 0.000000 0.000000 -0.000000 0.000000 0.000000 -0.000000 0.000001 -0.000000 -0.000000 -0.000000 -0.000000 0.000000 
